#!OML:ASF H:\BabyWalks\Project 1\Capture day 1\Session 1\baby.ASF
:FULLY-SPECIFIED
:DEGREES
1195
root -8.78054 17.2344 -0.771511 483.549 -82.9469 -489.964
lowerback 11.9919 0.438173 2.70925
upperback -0.748975 1.08671 1.95546
thorax -7.52781 0.447729 0.345649
lowerneck -5.48876 1.95059 5.45599
upperneck 1.34513 2.35295 -4.48276
head 1.5094 1.11815 -2.31081
rclavicle -1.75521e-014 -4.27387e-015
rhumerus -15.3271 -37.8902 -12.0728
rradius 27.818
rwrist 29.6585
rhand -6.42566 -16.5957
rfingers 7.12502
rthumb 19.4231 -45.6456
lclavicle -1.75521e-014 -4.27387e-015
lhumerus -17.2204 32.3895 15.1639
lradius 32.9588
lwrist -18.9762
lhand 1.88766 13.0152
lfingers 7.12502
lthumb 27.3971 41.0434
rfemur 3.26255 18.4324 21.1711
rtibia 27.3901
rfoot -27.6799 -29.9828
rtoes 5.7698
lfemur 3.45194 -25.1973 -15.9663
ltibia 32.8252
lfoot -32.1169 34.986
ltoes 2.54151
1196
root -8.78595 17.2305 -0.764849 483.881 -82.9227 -490.326
lowerback 11.9942 0.46146 2.67376
upperback -0.742072 1.11177 1.9422
thorax -7.52173 0.461281 0.346963
lowerneck -5.45113 1.95796 5.4639
upperneck 1.2798 2.36353 -4.52519
head 1.48319 1.12266 -2.32591
rclavicle -6.21513e-015 2.45499e-014
rhumerus -15.5619 -37.8419 -12.1714
rradius 27.8443
rwrist 29.7078
rhand -6.2982 -16.5543
rfingers 7.12502
rthumb 19.5457 -45.5918
lclavicle -6.21513e-015 2.45499e-014
lhumerus -17.2615 32.2881 15.3085
lradius 32.9621
lwrist -18.9847
lhand 1.94647 12.9462
lfingers 7.12502
lthumb 27.4534 40.9655
rfemur 3.31628 18.4846 21.1498
rtibia 27.3888
rfoot -27.725 -29.9399
rtoes 5.74168
lfemur 3.49865 -25.1592 -16.035
ltibia 32.8812
lfoot -32.1906 35.0162
ltoes 2.53621
1197
root -8.79079 17.2273 -0.759135 484.275 -82.8935 -490.744
lowerback 12.0019 0.484734 2.63129
upperback -0.738959 1.13617 1.928
thorax -7.52289 0.474705 0.351309
lowerneck -5.42248 1.968 5.47272
upperneck 1.21932 2.37706 -4.56225
head 1.46023 1.12869 -2.3393
rclavicle 6.56921e-015 6.36111e-015
rhumerus -15.7862 -37.7407 -12.2898
rradius 27.887
rwrist 29.7077
rhand -6.18711 -16.511
rfingers 7.12502
rthumb 19.6525 -45.5377
lclavicle 6.56921e-015 6.36111e-015
lhumerus -17.3248 32.1948 15.4186
lradius 32.9732
lwrist -18.9873
lhand 1.9665 12.878
lfingers 7.12502
lthumb 27.4726 40.8942
rfemur 3.3587 18.5455 21.1298
rtibia 27.3898
rfoot -27.7638 -29.9027
rtoes 5.70555
lfemur 3.54245 -25.1089 -16.0933
ltibia 32.9231
lfoot -32.2556 35.0359
ltoes 2.54249
1198
root -8.79515 17.2246 -0.754151 484.754 -82.8702 -491.242
lowerback 12.0113 0.508462 2.57656
upperback -0.739092 1.15938 1.90899
thorax -7.52866 0.487947 0.357662
lowerneck -5.39815 1.98015 5.48383
upperneck 1.15927 2.39289 -4.59489
head 1.43828 1.13594 -2.35157
rclavicle -4.11857e-015 1.13307e-014
rhumerus -16.0019 -37.6199 -12.4214
rradius 27.9409
rwrist 29.6927
rhand -6.09364 -16.4571
rfingers 7.12502
rthumb 19.7423 -45.4745
lclavicle -4.11857e-015 1.13307e-014
lhumerus -17.4007 32.1239 15.4984
lradius 32.9855
lwrist -19.003
lhand 1.96104 12.8136
lfingers 7.12502
lthumb 27.4673 40.8307
rfemur 3.3917 18.6112 21.0979
rtibia 27.391
rfoot -27.804 -29.8638
rtoes 5.68317
lfemur 3.58039 -25.0501 -16.1545
ltibia 32.9538
lfoot -32.3053 35.0514
ltoes 2.54428
1199
root -8.79912 17.2225 -0.749862 485.276 -82.8457 -491.779
lowerback 12.0206 0.531037 2.51645
upperback -0.742605 1.18037 1.88882
thorax -7.53818 0.500281 0.366206
lowerneck -5.38494 1.99127 5.49017
upperneck 1.11242 2.40718 -4.61783
head 1.42219 1.14252 -2.35981
rclavicle -9.03538e-015 1.51076e-014
rhumerus -16.2027 -37.4725 -12.5684
rradius 28.0012
rwrist 29.6553
rhand -6.02355 -16.3973
rfingers 7.12502
rthumb 19.8097 -45.4077
lclavicle -9.03538e-015 1.51076e-014
lhumerus -17.493 32.0695 15.5459
lradius 32.9971
lwrist -19.0266
lhand 1.94065 12.7622
lfingers 7.12502
lthumb 27.4478 40.7823
rfemur 3.41617 18.6815 21.065
rtibia 27.3909
rfoot -27.8329 -29.8361
rtoes 5.64911
lfemur 3.61455 -24.9829 -16.21
ltibia 32.9746
lfoot -32.3456 35.0598
ltoes 2.54968
